<svg width="64" height="64" viewBox="0 0 64 64" fill="none" xmlns="http://www.w3.org/2000/svg">
  <rect width="64" height="64" rx="14" fill="url(#hito-favicon-bg)" />
  <rect x="0.5" y="0.5" width="63" height="63" rx="13.5" stroke="white" stroke-opacity="0.08" />
  <g transform="translate(8 8.5) scale(0.78)" fill="white">
    <path d="M15.4025 43.08C14.9758 44.36 14.6292 45.5733 14.3625 46.72C14.1225 47.8667 13.9492 48.88 13.8425 49.76C13.7358 50.64 13.6825 51.3467 13.6825 51.88C13.6825 52.52 13.8025 53.0667 14.0425 53.52C14.3092 53.9467 14.4425 54.4667 14.4425 55.08C14.4425 56.28 13.5358 57.2533 11.7225 58C9.93583 58.72 7.37583 59.08 4.0425 59.08C2.62917 59.08 1.6025 58.8667 0.9625 58.44C0.349167 58.04 0.0291667 57.3867 0.0025 56.48C-0.0241667 55.5733 0.1625 54.4 0.5625 52.96L9.1225 21.76C10.3758 17.12 12.1892 13.1867 14.5625 9.96C16.9625 6.70667 19.9758 4.24 23.6025 2.56C27.2558 0.853333 31.6025 0 36.6425 0C40.1625 0 42.8425 0.546667 44.6825 1.64C46.5492 2.73333 47.4825 4.13334 47.4825 5.84C47.4825 7.04 47.0558 8.06667 46.2025 8.92C45.3492 9.77333 44.1892 10.2 42.7225 10.2C41.4958 10.2 40.3492 9.84 39.2825 9.12C38.2425 8.4 37.2292 7.56 36.2425 6.6C35.2825 5.64 34.3225 4.8 33.3625 4.08C32.4292 3.33333 31.4692 2.96 30.4825 2.96C29.6825 2.96 28.9092 3.17333 28.1625 3.6C27.4158 4.02667 26.7358 4.72 26.1225 5.68C25.5092 6.64 24.9758 7.92 24.5225 9.52L16.5625 37.72L16.1225 37.56C18.0958 33.48 20.2425 30.2667 22.5625 27.92C24.8825 25.5733 27.2025 23.9067 29.5225 22.92C31.8692 21.9067 34.0158 21.4 35.9625 21.4C37.9092 21.4 39.3758 21.8267 40.3625 22.68C41.3492 23.5333 41.8958 24.7467 42.0025 26.32C42.1092 27.8667 41.8158 29.72 41.1225 31.88L36.1225 47.88C35.4292 50.04 35.1758 51.5067 35.3625 52.28C35.5492 53.0267 35.9492 53.4 36.5625 53.4C37.0425 53.4 37.5492 53.2133 38.0825 52.84C38.6425 52.44 39.3225 51.7467 40.1225 50.76C40.4425 50.44 40.6692 50.24 40.8025 50.16C40.9625 50.08 41.1358 50.0667 41.3225 50.12C41.5358 50.2 41.6425 50.4 41.6425 50.72C41.6425 51.0133 41.5092 51.4133 41.2425 51.92C40.1758 54 38.5492 55.72 36.3625 57.08C34.2025 58.4133 31.5092 59.08 28.2825 59.08C26.3358 59.08 24.8958 58.7333 23.9625 58.04C23.0292 57.32 22.5358 56.2667 22.4825 54.88C22.4292 53.4933 22.7225 51.8 23.3625 49.8L28.2425 34.4C28.9625 32.1067 29.2158 30.5333 29.0025 29.68C28.7892 28.8 28.1492 28.36 27.0825 28.36C26.3358 28.36 25.4692 28.6667 24.4825 29.28C23.4958 29.8933 22.4692 30.8133 21.4025 32.04C20.3358 33.24 19.2825 34.76 18.2425 36.6C17.2292 38.44 16.2825 40.6 15.4025 43.08Z" />
    <path d="M46.52 56.56C47.5333 57.4667 48.9733 57.92 50.84 57.92C52.76 57.92 54.4 57.56 55.76 56.84C57.1467 56.0933 58.2133 55.1067 58.96 53.88C59.7067 52.6533 60.0933 51.32 60.12 49.88C60.12 48.52 59.64 47.3733 58.68 46.44C57.72 45.48 56.1733 45 54.04 45C52.2533 45 50.68 45.4133 49.32 46.24C47.9867 47.04 46.9333 48.0533 46.16 49.28C45.4133 50.5067 45.0267 51.76 45 53.04C45 54.4533 45.5067 55.6267 46.52 56.56Z" />
  </g>
  <defs>
    <linearGradient id="hito-favicon-bg" x1="8" y1="4" x2="56" y2="64" gradientUnits="userSpaceOnUse">
      <stop stop-color="#3a3732" />
      <stop offset="0.52" stop-color="#15130f" />
      <stop offset="1" stop-color="#030303" />
    </linearGradient>
  </defs>
</svg>
